#N canvas 12 4 1585 804 10;
#X obj 976 503 osc~;
#X obj 544 507 osc~;
#X obj 1231 515 *~ 0.2;
#X obj 1353 737 dac~;
#X obj 536 324 / 32;
#X obj 1352 545 bob~;
#X obj 1314 428 mtof;
#X obj 1314 488 pack 0 50;
#X obj 1314 517 line~;
#X obj 1386 488 line~;
#X obj 1179 276 ctlin 74;
#X obj 1261 276 ctlin 71;
#X obj 977 571 throw~ gen;
#X obj 1199 463 catch~ gen;
#X obj 781 507 osc~;
#X obj 781 324 / 32;
#X obj 196 428 osc~;
#X obj 156 287 ctlin 1;
#X obj 472 271 ctlin 22;
#X obj 553 271 ctlin 23;
#X obj 231 351 mtof;
#X obj 158 348 * 0.32;
#X obj 196 474 +~;
#X obj 196 451 *~ 0;
#X obj 616 324 - 64;
#X obj 616 351 / 4096;
#X obj 601 418 +;
#X obj 601 388 bng 15 250 50 0 empty empty empty 17 7 0 10 -262144
-1 -1;
#X obj 861 324 - 64;
#X obj 861 351 / 4096;
#X obj 846 418 +;
#X obj 846 388 bng 15 250 50 0 empty empty empty 17 7 0 10 -262144
-1 -1;
#X obj 878 271 ctlin 27;
#X obj 651 44 loadbang;
#X msg 576 142 32;
#X msg 651 141 64;
#X msg 725 145 127;
#X obj 1352 664 *~;
#X floatatom 1314 460 7 0 0 0 - - -;
#X obj 1386 460 / 30;
#X obj 781 484 *~ 1;
#X obj 544 484 *~ 1;
#X obj 704 324 * 24;
#X obj 455 324 * 24;
#X obj 303 594 throw~ mod_gen;
#X obj 111 594 throw~ mod_1;
#X obj 208 594 throw~ mod_2;
#X obj 544 458 catch~ mod_1;
#X obj 780 458 catch~ mod_2;
#X obj 977 476 catch~ mod_gen;
#X obj 543 595 throw~ mod_gen;
#X obj 780 595 throw~ mod_1;
#X obj 543 557 hip~ 32;
#X obj 781 557 hip~ 32;
#X obj 977 538 hip~ 32;
#X obj 1525 438 lop~ 32;
#X obj 544 530 *~;
#X obj 781 530 *~;
#X obj 455 351 lop~ 16;
#X obj 704 351 lop~ 16;
#X text 1253 255 Resonance;
#X text 1422 255 Expression;
#X text 1526 255 Volume;
#X text 1191 255 Cutoff;
#X text 1222 230 FILTER;
#X text 1464 230 AMPLIFIER;
#X text 144 270 Mod Wheel;
#X text 229 269 LFO Freq;
#X text 491 251 Rate;
#X text 637 251 Fr fine;
#X text 547 251 Fr coarse;
#X text 743 251 Rate;
#X text 884 251 Fr fine;
#X text 792 251 Fr coarse;
#X text 524 230 MODULATOR 1;
#X text 771 230 MODULATOR 2;
#X text 1011 447 GENERATOR;
#X obj 632 271 ctlin 24;
#X obj 720 271 ctlin 25;
#X obj 798 271 ctlin 26;
#X obj 231 384 / 64;
#X obj 135 313 hsl 64 15 0 127 0 0 empty empty empty -2 -8 0 10 -203904
-4160 -1 0 1;
#X obj 214 313 hsl 64 15 0 127 0 0 empty empty empty -2 -8 0 10 -203904
-4160 -1 1587 1;
#X obj 458 297 hsl 64 15 0 127 0 0 empty empty empty -2 -8 0 10 -203904
-4160 -1 0 1;
#X obj 539 296 hsl 64 15 0 127 0 0 empty empty empty -2 -8 0 10 -203904
-4160 -1 1587 1;
#X obj 619 296 hsl 64 15 0 127 0 0 empty empty empty -2 -8 0 10 -203904
-4160 -1 3175 1;
#X obj 707 296 hsl 64 15 0 127 0 0 empty empty empty -2 -8 0 10 -203904
-4160 -1 0 1;
#X obj 784 296 hsl 64 15 0 127 0 0 empty empty empty -2 -8 0 10 -203904
-4160 -1 1587 1;
#X obj 864 297 hsl 64 15 0 127 0 0 empty empty empty -2 -8 0 10 -203904
-4160 -1 3175 1;
#X obj 1166 300 hsl 64 15 0 127 0 0 empty empty empty -2 -8 0 10 -203904
-4160 -1 6300 1;
#X obj 1264 300 hsl 64 15 0 127 0 0 empty empty empty -2 -8 0 10 -203904
-4160 -1 0 1;
#X obj 1421 298 hsl 64 15 0 127 0 0 empty empty empty -2 -8 0 10 -203904
-4160 -1 6300 1;
#X obj 1502 298 hsl 64 15 0 127 0 0 empty empty empty -2 -8 0 10 -203904
-4160 -1 6300 1;
#X obj 1467 339 + 1;
#X obj 1438 376 *;
#X obj 1543 339 + 1;
#X obj 1525 376 *;
#X obj 1353 601 *~;
#X obj 1438 438 lop~ 32;
#X obj 1438 407 / 16384;
#X obj 1525 406 / 16384;
#X floatatom 633 418 5 0 0 0 - - -;
#X floatatom 877 418 5 0 0 0 - - -;
#X obj 1434 276 ctlin 11;
#X obj 1521 276 ctlin 7;
#X floatatom 1399 438 5 0 0 0 - - -;
#X floatatom 1489 438 5 0 0 0 - - -;
#X text 674 20 Init;
#X obj 328 48 ctlin 48;
#X obj 394 48 ctlin 16;
#X obj 229 288 ctlin 28;
#X text 321 28 Pitch LSB;
#X text 389 26 Pitch MSB;
#X obj 394 107 * 128;
#X obj 328 257 mtof;
#X obj 328 229 / 128;
#X obj 197 510 lop~ 64;
#X obj 328 200 + 0;
#X obj 1247 36 ctlin 123;
#X msg 1247 62 0;
#X msg 272 100 1;
#X msg 239 101 0, f 2;
#X obj 239 131 select;
#X text 12 76 This forces to use an auto detect for 14bit cc;
#X text 42 59 MIDI 1 Specifies to send MSB before LSB;
#X msg 239 156 0;
#X obj 243 190 bng 15 250 50 0 empty empty empty 17 7 0 10 -262144
-1 -1;
#X connect 0 0 54 0;
#X connect 1 0 56 0;
#X connect 2 0 5 0;
#X connect 4 0 26 0;
#X connect 5 0 97 0;
#X connect 6 0 38 0;
#X connect 7 0 8 0;
#X connect 8 0 5 1;
#X connect 9 0 5 2;
#X connect 10 0 89 0;
#X connect 11 0 90 0;
#X connect 13 0 2 0;
#X connect 14 0 57 0;
#X connect 15 0 30 0;
#X connect 16 0 23 0;
#X connect 17 0 81 0;
#X connect 18 0 83 0;
#X connect 19 0 84 0;
#X connect 20 0 80 0;
#X connect 21 0 23 1;
#X connect 22 0 116 0;
#X connect 23 0 22 0;
#X connect 24 0 25 0;
#X connect 25 0 26 1;
#X connect 25 0 27 0;
#X connect 26 0 41 1;
#X connect 26 0 101 0;
#X connect 27 0 26 0;
#X connect 28 0 29 0;
#X connect 29 0 30 1;
#X connect 29 0 31 0;
#X connect 30 0 40 1;
#X connect 30 0 102 0;
#X connect 31 0 30 0;
#X connect 32 0 88 0;
#X connect 33 0 34 0;
#X connect 33 0 35 0;
#X connect 33 0 36 0;
#X connect 34 0 87 0;
#X connect 34 0 84 0;
#X connect 34 0 82 0;
#X connect 35 0 88 0;
#X connect 35 0 85 0;
#X connect 36 0 91 0;
#X connect 36 0 92 0;
#X connect 36 0 89 0;
#X connect 37 0 3 1;
#X connect 37 0 3 0;
#X connect 38 0 7 0;
#X connect 39 0 9 0;
#X connect 40 0 14 0;
#X connect 41 0 1 0;
#X connect 42 0 59 0;
#X connect 43 0 58 0;
#X connect 47 0 41 0;
#X connect 48 0 40 0;
#X connect 49 0 0 0;
#X connect 52 0 50 0;
#X connect 53 0 51 0;
#X connect 54 0 12 0;
#X connect 55 0 37 1;
#X connect 56 0 52 0;
#X connect 57 0 53 0;
#X connect 58 0 56 1;
#X connect 59 0 57 1;
#X connect 77 0 85 0;
#X connect 78 0 86 0;
#X connect 79 0 87 0;
#X connect 80 0 16 0;
#X connect 81 0 21 0;
#X connect 82 0 20 0;
#X connect 83 0 43 0;
#X connect 84 0 4 0;
#X connect 85 0 24 0;
#X connect 86 0 42 0;
#X connect 87 0 15 0;
#X connect 88 0 28 0;
#X connect 89 0 6 0;
#X connect 90 0 39 0;
#X connect 91 0 93 0;
#X connect 91 0 94 0;
#X connect 92 0 95 0;
#X connect 92 0 96 0;
#X connect 93 0 94 1;
#X connect 94 0 99 0;
#X connect 95 0 96 1;
#X connect 96 0 100 0;
#X connect 97 0 37 0;
#X connect 98 0 97 1;
#X connect 99 0 98 0;
#X connect 99 0 105 0;
#X connect 100 0 55 0;
#X connect 100 0 106 0;
#X connect 103 0 91 0;
#X connect 104 0 92 0;
#X connect 108 0 117 0;
#X connect 108 0 121 0;
#X connect 109 0 113 0;
#X connect 109 0 120 0;
#X connect 110 0 82 0;
#X connect 113 0 117 1;
#X connect 114 0 22 1;
#X connect 115 0 114 0;
#X connect 116 0 44 0;
#X connect 116 0 45 0;
#X connect 116 0 46 0;
#X connect 117 0 115 0;
#X connect 118 0 119 0;
#X connect 119 0 94 0;
#X connect 120 0 122 0;
#X connect 120 0 122 1;
#X connect 121 0 122 1;
#X connect 122 0 125 0;
#X connect 125 0 117 0;
#X connect 125 0 126 0;
